<svg id="Layer_2" data-name="Layer 2" xmlns="http://www.w3.org/2000/svg" viewBox="0 0 207.68 357.08"><defs><style>.cls-1{fill:#ff002b;}.cls-1,.cls-2,.cls-3,.cls-4,.cls-5,.cls-6,.cls-7{stroke:#000;}.cls-1,.cls-2,.cls-3,.cls-4,.cls-5,.cls-6,.cls-7,.cls-8,.cls-9{stroke-miterlimit:10;}.cls-1,.cls-2,.cls-3,.cls-8{stroke-width:1.18px;}.cls-2{fill:#f7802f;}.cls-3{fill:#73a7f8;}.cls-4,.cls-6{fill:#603813;}.cls-5,.cls-7{fill:#8c6239;}.cls-6,.cls-7{stroke-width:1.08px;}.cls-8,.cls-9{fill:none;stroke:#c69c6d;}</style></defs><title>campfire</title><path class="cls-1" d="M8.5,245.4c24.67-7,42.38-22.59,43.36-39.17,1.07-18.11-18-34.2-22.41-37.91-10.75-9.06-15.59-7.88-19.79-14.12-9.31-13.84,4.43-34.62,18.81-55.79,6.43-9.47,24.15-34.22,62.36-67,13.56-11.62,25.43-20.6,33.61-26.54-19.42,35.76-15.91,57-8.55,69.94,16.7,29.4,61.13,30,66.53,56.84,3.89,19.36-17.66,27.14-12.18,46.75,6.62,23.74,42,26,42.87,42.12.87,16.78-36.74,32.36-59.92,38.75C94.8,275.38,38.55,257.76,8.5,245.4Z" transform="translate(-6.03 -2.89)"/><path class="cls-2" d="M96.84,148.26c-13-2.54-15.36-29.45-16.07-37.49-1.27-14.25-.3-40.41,20.94-72.44C91.6,49,78.3,65.94,71,88.87c-9.11,28.72-5,55-14.61,56.86-4.79.93-10.35-4.71-16.08-10.53a48.61,48.61,0,0,1-12.66-22.32c-3.64,15.43-1,26.28,1.94,33.27,9.18,21.53,29.44,24.19,34.11,45.91,2.53,11.79-.94,22.64-1.95,25.7a58.59,58.59,0,0,1-12.18,20.63A96.22,96.22,0,0,0,68.1,248.92c10.27,4.44,34.13,14.74,59.43,6.74,5.44-1.71,31.77-10.87,37.06-34.53S149.5,180.24,148,179a24.48,24.48,0,0,1-12.17,9.26c-2.71.95-8.1,2.85-9.75,1.27-3.69-3.54,18.44-17.7,23.87-41.7A49.36,49.36,0,0,0,148,119.47c-8.67-22.54-32.68-32.54-38.52-34.81,1.68,1.21,19.81,14.77,17,34.12C124.22,135.15,107.68,150.38,96.84,148.26Z" transform="translate(-6.03 -2.89)"/><path class="cls-3" d="M66.15,235a72.72,72.72,0,0,0,15.59-26.53c1.77-5.55,4.34-13.59,2.76-22.43-3.69-20.63-27.48-31.95-32-34,10.06,7.06,21.64,13.86,26.31,10.95,8.15-5.09-8.85-37.38-7.31-37.91,1.94-.66,21.7,53.65,38.35,52.42,8-.6,13.53-14.06,17.19-27.57a52.06,52.06,0,0,0-14.62,20.22,46.3,46.3,0,0,0-.49,32,49.15,49.15,0,0,0,22.41-2.1,43.1,43.1,0,0,0,15.59-9.27,37.81,37.81,0,0,1,.49,21.9c-5.88,20.57-27.94,29.49-31.18,30.75-.83-15.09-7.75-26.46-17.54-28.64-3.93-.88-7.47-.08-10.32.6C76.5,218.94,68.64,230.82,66.15,235Z" transform="translate(-6.03 -2.89)"/><path class="cls-4" d="M132.6,351.22c26.08-21.24,47.06-38.12,73.14-59.35-.55-1.88-3.9-15.05-14.9-20.48A29.69,29.69,0,0,0,161,274c-25,19.55-46.6,35.17-71.62,54.72C103.25,335.54,118.76,344.35,132.6,351.22Z" transform="translate(-6.03 -2.89)"/><path class="cls-4" d="M-125,210.19" transform="translate(-6.03 -2.89)"/><path class="cls-5" d="M136.83,340.79c-3.76,16-13.11,19.91-27.08,18.37-14.87-1.65-27.08-8.22-27.08-18.37s12.12-18.36,27.08-18.36S139.15,330.92,136.83,340.79Z" transform="translate(-6.03 -2.89)"/><path class="cls-6" d="M149.5,260.84a338.6,338.6,0,0,1-55.47,20c-26.09,6.9-52.07,10.38-55.48,20-1,2.92,0,6.45.67,8.78a23.64,23.64,0,0,0,9,12.71c9.36,6,23.4,7.26,36.6,3.37,37.65-13,69.64-23.11,107.29-36.13C178.28,280.73,163.29,269.73,149.5,260.84Z" transform="translate(-6.03 -2.89)"/><path class="cls-7" d="M140.29,269.52c10.88-13.88,23.59-15.62,39.65-11.54,17.09,4.34,29.05,12.66,25,21.89s-21.79,14.41-39.64,11.54S133.59,278.06,140.29,269.52Z" transform="translate(-6.03 -2.89)"/><path class="cls-8" d="M145.68,269.17c3.11,3.66,10.77,11.6,22.7,13.7,15,2.64,31.69-4.78,31.7-10.57,0-5.29-14-9.7-23.87-10.17-4-.19-11.8-.56-13.7,3.52-1.42,3.06,1,7.54,3.92,9.78,6.63,5.11,18.27.53,18.39-2.34.05-1.22-1.91-2.89-9.78-5.09" transform="translate(-6.03 -2.89)"/><path class="cls-8" d="M96.37,329.83" transform="translate(-6.03 -2.89)"/><path class="cls-9" d="M99.11,333.75a80.45,80.45,0,0,1,14.48-2.35,26.8,26.8,0,0,1,9.1.53c3.08.78,6.74,1.71,7.73,4.17,1.6,4-4.39,10.6-10.18,13.69-.92.5-10,5.18-19.17.79-4.14-2-9.88-6.6-9-10.18,1.11-4.54,12.33-5.22,18.39-4.7,1.16.1,9.1.79,9.39,3.13.32,2.55-8.56,5.48-9.78,5.88" transform="translate(-6.03 -2.89)"/></svg>