<svg id="Layer_1" data-name="Layer 1" xmlns="http://www.w3.org/2000/svg" viewBox="0 0 131.65 350.17"><defs><style>.cls-1{fill:#b3b4b4;stroke-width:0.41px;}.cls-1,.cls-2,.cls-3,.cls-4,.cls-9{stroke:#231f20;}.cls-1,.cls-2,.cls-3,.cls-4,.cls-6,.cls-7,.cls-8,.cls-9{stroke-miterlimit:10;}.cls-2{fill:#5aba47;}.cls-2,.cls-4,.cls-9{stroke-width:0.85px;}.cls-3{fill:#c1272d;stroke-width:0.92px;}.cls-4{fill:#6bcde6;}.cls-5{fill:#ec2027;}.cls-6,.cls-7,.cls-8{fill:none;stroke:#fff;}.cls-7{stroke-width:0.76px;}.cls-8{stroke-width:0.54px;}.cls-9{fill:#dee21d;}</style></defs><title>lighter</title><path class="cls-1" d="M126.71,148c-12.8-.84-30.66-6.62-51.92-6.62S35.72,147.17,22.87,148V105.77A44.63,44.63,0,0,1,38.26,102c10.82-.62,18.26,3.16,22-.76,1.57-1.66,1.9-4.08,1.76-6.4a170.9,170.9,0,0,1,64.71,7.28Z" transform="translate(-21.38 -5.35)"/><path class="cls-2" d="M126.71,342.78V134.52a169.7,169.7,0,0,0-103.84,0V342.78a115.61,115.61,0,0,0,103.84,0Z" transform="translate(-21.38 -5.35)"/><path class="cls-3" d="M69.57,381.65" transform="translate(-21.38 -5.35)"/><path class="cls-4" d="M92.87,89C81.22,84.38,75.14,63.34,81.4,56.27c4.89-5.54,14.19.95,26.54-6.18,1.56-.91,8.82-5.1,11.6-12.83,3.53-9.83-1.31-22.28-11.7-31.55,11.54,6.84,28.06,19.42,37.34,40.45,7.06,16,11,39.25,3,44.13-5.56,3.4-11.36-5.6-27.09-5.92C105.87,84.06,101.39,92.29,92.87,89Z" transform="translate(-21.38 -5.35)"/><path class="cls-5" d="M59.79,97.14c.41,4.85-8.49,2-19.1,2.86s-18.89,5.24-19.3.39S29.24,90.88,39.85,90,59.38,92.29,59.79,97.14Z" transform="translate(-21.38 -5.35)"/><path d="M126.71,110.23c0,2.35.17,2.49,0,2.83-.74,1.74-6.5,1-11.78.11-7.83-1.33-11.75-2-11.75-2.94,0-1.29,6.2-2.15,11.75-2.93,4.77-.66,11-1.18,11.75.73C126.82,108.3,126.71,108.37,126.71,110.23Z" transform="translate(-21.38 -5.35)"/><path d="M132,116" transform="translate(-21.38 -5.35)"/><path d="M126.71,120.09c0,2.35.17,2.49,0,2.83-.74,1.74-6.5,1-11.78.1-7.83-1.32-11.75-2-11.75-2.93,0-1.29,6.2-2.15,11.75-2.93,4.77-.67,11-1.18,11.75.73C126.82,118.16,126.71,118.23,126.71,120.09Z" transform="translate(-21.38 -5.35)"/><path class="cls-6" d="M41.71,340.23" transform="translate(-21.38 -5.35)"/><ellipse class="cls-7" cx="10.69" cy="263.55" rx="2.53" ry="68.52"/><path class="cls-8" d="M95.21,124.85c.24.53-18.92-2.23-37.76,0C39.3,127,24,132.37,24,130.9s16.83-9,35.11-9S94.63,123.5,95.21,124.85Z" transform="translate(-21.38 -5.35)"/><path class="cls-9" d="M104,78.75c-3.81-2.19-6.27-8.12-4.72-12.12,2.84-7.31,17.4-2.74,24.93-10.44,4.2-4.3,6.78-13,1-32,10,15.05,13.05,28.19,14.14,36.38.17,1.23,2.76,21.54-3,23.61-3.29,1.18-5.45-5-13.35-6.68C114.09,75.6,109.39,81.86,104,78.75Z" transform="translate(-21.38 -5.35)"/><path class="cls-9" d="M181.8,145.1" transform="translate(-21.38 -5.35)"/></svg>