<svg xmlns="http://www.w3.org/2000/svg" viewBox="0 0 305.37 219.99"><defs><style>.cls-1{fill:#603813;}.cls-2{fill:#fc6de8;}.cls-12,.cls-13,.cls-3{fill:none;}.cls-3{stroke:#050505;}.cls-11,.cls-12,.cls-13,.cls-3,.cls-9{stroke-miterlimit:10;}.cls-12,.cls-3{stroke-width:2px;}.cls-4{fill:#8cc63f;}.cls-5{fill:#8c6239;}.cls-6{fill:#bf9362;}.cls-7{fill:red;}.cls-8{fill:#c1272d;}.cls-9{fill:#f7931e;stroke-width:0.74px;}.cls-11,.cls-9{stroke:#020202;}.cls-10{fill:#c69c6d;}.cls-11{fill:#fcee21;stroke-width:0.41px;}.cls-12,.cls-13{stroke:#000;}.cls-13{stroke-width:2.02px;}</style></defs><title>matches</title><g id="Layer_1" data-name="Layer 1"><path class="cls-1" d="M105.14,222.16l61.76-1.56c5.78-.15,5.81-9.15,0-9l-61.76,1.56c-5.78.15-5.8,9.15,0,9Z" transform="translate(-19.75 -53.4)"/><path class="cls-1" d="M115.77,214.2h61.78c5.79,0,5.8-9,0-9H115.77c-5.79,0-5.8,9,0,9Z" transform="translate(-19.75 -53.4)"/><path class="cls-1" d="M79.3,219.53l61.58,5c5.77.47,5.74-8.54,0-9l-61.58-5c-5.78-.47-5.75,8.53,0,9Z" transform="translate(-19.75 -53.4)"/><path class="cls-1" d="M170.67,225.78,211,179c3.76-4.37-2.58-10.76-6.37-6.36l-40.34,46.79c-3.76,4.37,2.57,10.76,6.36,6.36Z" transform="translate(-19.75 -53.4)"/><polygon class="cls-2" points="98.83 129.06 98.83 95.36 3.03 166.25 56.01 166.08 98.83 129.06"/><line class="cls-3" x1="97.35" y1="129.06" x2="97.35" y2="95.36"/><polygon class="cls-4" points="213.91 127.53 214.71 95.36 97.89 95.85 97.35 129.06 213.91 127.53"/><polygon class="cls-2" points="214.71 146.83 214.71 95.36 156.45 165.76 156.94 217.23 214.71 146.83"/><path class="cls-5" d="M103.78,220.05l48.4-38.4c4.54-3.6-1.87-9.93-6.36-6.36l-48.4,38.4c-4.54,3.59,1.87,9.92,6.36,6.36Z" transform="translate(-19.75 -53.4)"/><path class="cls-5" d="M128,217.78l48.4-38.4c4.54-3.6-1.87-9.93-6.36-6.37l-48.4,38.4c-4.54,3.6,1.87,9.93,6.36,6.37Z" transform="translate(-19.75 -53.4)"/><path class="cls-5" d="M150.14,217.78l48.4-38.4c4.54-3.6-1.87-9.93-6.36-6.37l-48.4,38.4c-4.54,3.6,1.87,9.93,6.36,6.37Z" transform="translate(-19.75 -53.4)"/><path class="cls-6" d="M115.26,219.67l48.41-38.4c4.53-3.59-1.87-9.93-6.37-6.36l-48.4,38.4c-4.53,3.6,1.87,9.93,6.36,6.36Z" transform="translate(-19.75 -53.4)"/><path class="cls-6" d="M139.47,217.4l48.4-38.4c4.53-3.6-1.87-9.93-6.37-6.36L133.1,211c-4.53,3.59,1.87,9.92,6.37,6.36Z" transform="translate(-19.75 -53.4)"/><path class="cls-6" d="M161.62,217.4,210,179c4.53-3.6-1.88-9.93-6.37-6.36L155.26,211c-4.54,3.59,1.87,9.92,6.36,6.36Z" transform="translate(-19.75 -53.4)"/><path class="cls-5" d="M78.17,222.25l48.4-38.4c4.54-3.6-1.87-9.93-6.36-6.36l-48.4,38.39c-4.54,3.6,1.87,9.93,6.36,6.37Z" transform="translate(-19.75 -53.4)"/><path class="cls-6" d="M89.65,221.87l48.41-38.4c4.53-3.6-1.87-9.93-6.37-6.36l-48.4,38.4c-4.53,3.6,1.87,9.93,6.36,6.36Z" transform="translate(-19.75 -53.4)"/><path class="cls-7" d="M75.13,213c-3.33-.16-7.09,2-7,5.74.08,4.33,4.81,7,8.72,5.61a7.14,7.14,0,0,0,4.54-8.78c-1.52-4.76-8.53-4.68-10.64-.42-1,2.11-.63,5,1.62,6.16,2,1.07,5,.64,6.16-1.61.21-.41.1-.28-.34.38a2.1,2.1,0,0,1-.9.6,2.83,2.83,0,0,1-2.55-.14l-2.07-2.69a2.57,2.57,0,0,1,.15.47c-.08-.8-.12-1-.12-.47.13-.79.13-1,0-.49l.25-.63c.48-.57.57-.68.24-.35a2.26,2.26,0,0,1,1.16-.66c-.47.13-.31.12.48,0-.37,0-.33,0,.11.06s.47.07.12,0a2.31,2.31,0,0,1,1.12.65,3.49,3.49,0,0,1-.11,4.9c-.67.47-.86.62-.55.43s-1.17.58-.21.16q-1.28.13-.57.09h.41a4.53,4.53,0,0,0,4.5-4.5,4.59,4.59,0,0,0-4.5-4.5Z" transform="translate(-19.75 -53.4)"/><path class="cls-7" d="M83.27,215.72A5.91,5.91,0,0,0,82,221.48a6,6,0,0,0,5.31,4.13c3.84.31,7.07-3.3,6.91-7A6.74,6.74,0,0,0,86.31,212c-3.39.66-6.27,4.71-4.86,8.12a4.93,4.93,0,0,0,2.07,2.69,4.58,4.58,0,0,0,3.47.46c2.08-.68,4.1-3.21,3.14-5.54-.16-.45-.16-.27,0,.56a2.77,2.77,0,0,1-.39,1.43c-.5.58-.6.71-.28.37a2.48,2.48,0,0,1-1.21.68q1.15-.28-1.5-.06c.45.14.3.07-.45-.19a2.43,2.43,0,0,1-1-1c.23.4.18.25-.14-.46.12.47.12.29,0-.51,0,.48,0,.31.13-.5-.12.44,0,.3.21-.4.47-.53.54-.63.22-.29a2.81,2.81,0,0,1,3.4-.35c2,1.13,1.81,3.4.49,5A4.87,4.87,0,0,0,91,218.9a4.57,4.57,0,0,0-1.32-3.18c-1.63-1.5-4.78-2-6.36,0Z" transform="translate(-19.75 -53.4)"/><path class="cls-7" d="M98.06,215a6.39,6.39,0,0,0,.58,9.37,6.29,6.29,0,0,0,9.54-2.56,6.59,6.59,0,0,0-4.51-8.68c-3.37-.9-6.52.71-8.8,3.13a4.5,4.5,0,0,0,6.37,6.36c.26-.28.55-.53.81-.8-.85.88.4-.35.33-.17s-1.21.19-.7.2c.35,0,.22,0-.4,0a1.4,1.4,0,0,1-.69-.34c-1.53-1.15-.92-4.19,1-4.67l2.32.31a2.84,2.84,0,0,1,1.29,1.63,2.81,2.81,0,0,1-.73,2.63c1.56-1.76,1.87-4.65,0-6.37-1.7-1.56-4.69-1.88-6.36,0Z" transform="translate(-19.75 -53.4)"/><path class="cls-7" d="M107.77,213.16a6.29,6.29,0,0,0-1.65,4.32A6.76,6.76,0,0,0,108,221.8a6.87,6.87,0,0,0,3.38,1.89,11.34,11.34,0,0,0,4.42,0l1.07-.45a3.36,3.36,0,0,0,1.26-1.16,4.44,4.44,0,0,0,1-2.73v-2a4.42,4.42,0,0,0-2.23-3.88,9.43,9.43,0,0,0-7-.64,4.5,4.5,0,0,0,2.39,8.68,6,6,0,0,1,.93-.23l-1.2.16a5.26,5.26,0,0,1,1.19,0l-1.19-.16a5.63,5.63,0,0,1,1.14.3l-1.07-.45.22.1-2.23-3.89v2l3.3-4.34-.23,0,1.19-.16a6.66,6.66,0,0,1-1.67,0l1.2.16a4,4,0,0,1-.68-.18l1.08.45a3.91,3.91,0,0,1-.57-.31l.91.7a3.5,3.5,0,0,1-.38-.39l.7.91a3.26,3.26,0,0,1-.27-.48l.45,1.07a5,5,0,0,1-.14-.52l.16,1.2a2,2,0,0,1,0-.35l-.16,1.19a1.69,1.69,0,0,1,.13-.49l-.45,1.07.09-.15-.71.91.11-.14a4.9,4.9,0,0,0,1.32-3.18,4.56,4.56,0,0,0-1.32-3.18,4.47,4.47,0,0,0-3.18-1.32,4.32,4.32,0,0,0-3.18,1.32Z" transform="translate(-19.75 -53.4)"/><path class="cls-7" d="M111.1,221.64c5.79,0,5.8-9,0-9s-5.8,9,0,9Z" transform="translate(-19.75 -53.4)"/><path class="cls-7" d="M118.72,221.25c3.66,3.82,12.25,3.9,13.9-2.11,1-3.55-2.24-6.66-5.41-7.54s-7.19.89-7.7,4.35c-.33,2.32.57,5,3.15,5.54,2.13.48,5.17-.65,5.53-3.15-.25,1.73-2.42,2.11-3.71,1.81.43.3.46.3.1,0q.54.48-.18-.27l-.62-2.27v.31l.62-2.27a5,5,0,0,1,.73-.65c-.44.23-.39.21.16-.06-.91.1.91.13-.28,0q-.53,0,.36.06c-.48-.15-.43-.11.13.13a6.65,6.65,0,0,1-.58-.33c.47.37.52.39.17,0a4.5,4.5,0,0,0-6.37,6.37Z" transform="translate(-19.75 -53.4)"/><path class="cls-7" d="M136.34,210.93a7.77,7.77,0,0,0-6,5.76,4.56,4.56,0,0,0,5.54,5.54,8.44,8.44,0,0,0,5.56-3.69,6.3,6.3,0,0,0-1-7.63,6.46,6.46,0,0,0-7.8-.84,6.59,6.59,0,0,0-2.68,8c2.22,5.24,9.15,4.38,12.65.94a6.29,6.29,0,0,0,1.17-7.66,7.84,7.84,0,0,0-5.66-3.46c-2.32-.34-4.95.58-5.54,3.15-.49,2.14.65,5.16,3.14,5.53.35.06,1.32.1,1.56.37l-.51-.19c.45.3.36.18-.25-.35a2.83,2.83,0,0,1-.55-3.34c.06-.11.46-.74.63-.69a8.1,8.1,0,0,0-.77.43c-.43.28.81-.18,0,0-.21.05-1,.09-.37.13.82,0,1.46-.08,2.13.8l.78,2.76-.22.48a2.67,2.67,0,0,1-4.4-.08l-.3-2.29a2,2,0,0,1,.42-.8c.13-.16,1-.78.36-.39s.17,0,.2-.06c0,.1-.82.22-.91.24l5.53,5.53c.14-.48.11-.45-.09.11-.38.43-.4.47-.06.11a1.4,1.4,0,0,1-.8.45,3,3,0,0,1,.67-.14c2.33-.36,3.83-3.41,3.14-5.54-.82-2.54-3-3.52-5.53-3.14Z" transform="translate(-19.75 -53.4)"/><path class="cls-7" d="M142.26,213.92c-1.48,2.72-2,6,0,8.63a6.52,6.52,0,0,0,8.2,1.61,6.67,6.67,0,0,0,3.4-7.34,7.63,7.63,0,0,0-5.57-5.68,4.5,4.5,0,0,0-2.4,8.68c.77.19-.66-.43-.3-.18.6.42,0,0-.24-.23.54.5-.41-.74-.17-.29.35.65,0-.11-.1-.35.28.67,0-.93,0-.42,0,.24,0,.15,0-.26a1.94,1.94,0,0,1,.36-1.08c-.33.59.66-.74.3-.39s1-.63.36-.31c0,0,1.1-.42.53-.25s1.17-.05.45-.08a3.41,3.41,0,0,1,1.56.43c-.27-.16-.21-.12.16.14a1.62,1.62,0,0,1,.53.51,2.7,2.7,0,0,1,.57,1.61c-.07-.78-.22.72-.07.31,0-.1.23-.53.19-.64.09.26-.46,1,0,.12a4.5,4.5,0,1,0-7.77-4.54Z" transform="translate(-19.75 -53.4)"/><path class="cls-7" d="M155.72,211.55a6,6,0,0,0-1.74,8.88,6.38,6.38,0,0,0,9.59.32c2.58-2.83,2.58-8-.9-10.21-2.75-1.71-6.63-.55-9.33.66-2.15,1-2.83,4.27-1.61,6.16a4.62,4.62,0,0,0,6.15,1.61c-1,.48.34-.07.58-.13l.34-.08c.51-.09.46-.09-.16,0a6.08,6.08,0,0,1,1.05,0q-3.23-.54-3.27-2.95c0,.4,0,.4,0,0,.29-.71.4-1.23,1.15-1.67a2.54,2.54,0,0,1,1.93-.22c2.37.66,3,4.16.72,5.42a4.54,4.54,0,0,0,1.61-6.16,4.59,4.59,0,0,0-6.15-1.61Z" transform="translate(-19.75 -53.4)"/><polygon class="cls-4" points="156.45 218.55 156.45 165.76 1.27 166.25 1.42 218.55 156.45 218.55"/><polygon class="cls-4" points="304.37 69.67 304.37 3.1 221.47 80.21 221.47 145.81 304.37 69.67"/><polygon class="cls-8" points="168.62 86.1 162.36 91.48 154.12 91.83 152.13 86.81 158.4 81.43 166.64 81.08 168.62 86.1"/><polygon class="cls-8" points="195.53 84.74 189.27 90.12 181.03 90.47 179.05 85.45 185.31 80.08 193.55 79.72 195.53 84.74"/><polygon class="cls-8" points="304.87 11.54 301.85 15.69 293.61 16.04 291.63 11.02 297.89 5.65 304.37 5.37 304.87 11.54"/><polygon class="cls-8" points="207.6 90.09 201.35 95.47 193.1 95.83 191.12 90.8 197.38 85.43 205.62 85.07 207.6 90.09"/><polygon class="cls-8" points="246.03 65.53 239.77 70.9 231.52 71.26 229.54 66.23 235.8 60.86 244.04 60.5 246.03 65.53"/><polygon class="cls-8" points="240.97 77.31 234.72 82.68 226.47 83.04 224.49 78.02 230.75 72.64 238.99 72.28 240.97 77.31"/><polygon class="cls-8" points="238.4 118.04 232.14 123.42 223.9 123.77 221.91 118.75 228.17 113.38 236.42 113.02 238.4 118.04"/><polygon class="cls-8" points="248.71 120.27 239.53 128.62 235.41 129.05 233.43 124.03 239.69 118.65 247.93 118.3 248.71 120.27"/><polygon class="cls-8" points="233.35 129.82 227.09 135.2 218.85 135.55 216.86 130.53 223.12 125.16 231.37 124.8 233.35 129.82"/><polygon class="cls-8" points="235.97 88.67 229.71 94.04 221.46 94.4 219.48 89.38 225.74 84 233.98 83.65 235.97 88.67"/><polygon class="cls-8" points="247.48 93.95 241.22 99.32 232.98 99.68 231 94.66 237.25 89.28 245.5 88.92 247.48 93.95"/><polygon class="cls-8" points="230.56 100.61 224.3 105.99 216.06 106.34 214.07 101.32 220.33 95.95 228.58 95.59 230.56 100.61"/><polygon class="cls-8" points="242.08 105.89 235.82 111.27 227.57 111.62 225.59 106.6 231.85 101.22 240.09 100.87 242.08 105.89"/><polygon class="cls-8" points="259.2 99.46 252.94 104.84 244.7 105.19 242.71 100.17 248.97 94.79 257.22 94.44 259.2 99.46"/><polygon class="cls-8" points="256.29 111.6 254.31 106.58 260.57 101.2 268.81 100.85 256.29 111.6"/><polygon class="cls-8" points="254.15 111.24 247.89 116.62 239.65 116.97 237.66 111.95 243.92 106.58 252.16 106.22 254.15 111.24"/><polygon class="cls-8" points="257.82 70.6 251.56 75.98 243.32 76.33 241.33 71.31 247.59 65.94 255.84 65.58 257.82 70.6"/><polygon class="cls-8" points="269.34 75.88 263.08 81.26 254.83 81.61 252.85 76.59 259.11 71.21 267.35 70.86 269.34 75.88"/><polygon class="cls-8" points="252.41 82.55 246.16 87.92 237.91 88.28 235.93 83.26 242.19 77.88 250.43 77.53 252.41 82.55"/><polygon class="cls-8" points="263.93 87.83 257.67 93.2 249.43 93.56 247.44 88.53 253.7 83.16 261.95 82.8 263.93 87.83"/><polygon class="cls-8" points="281.05 81.4 274.8 86.77 266.55 87.13 264.57 82.11 270.83 76.73 279.07 76.38 281.05 81.4"/><polygon class="cls-8" points="278.07 92.4 276.08 87.38 282.34 82.01 290.59 81.65 278.07 92.4"/><polygon class="cls-8" points="276 93.18 269.74 98.55 261.5 98.91 259.52 93.89 265.77 88.51 274.02 88.16 276 93.18"/><polygon class="cls-8" points="268.33 46.69 262.07 52.06 253.82 52.41 251.84 47.39 258.1 42.02 266.34 41.66 268.33 46.69"/><polygon class="cls-8" points="263.27 58.47 257.02 63.84 248.77 64.2 246.79 59.18 253.05 53.8 261.29 53.45 263.27 58.47"/><polygon class="cls-8" points="289.13 28.1 282.87 33.48 274.62 33.84 272.64 28.81 278.9 23.44 287.14 23.08 289.13 28.1"/><polygon class="cls-8" points="284.07 39.89 277.81 45.26 269.57 45.62 267.59 40.59 273.85 35.22 282.09 34.86 284.07 39.89"/><polygon class="cls-8" points="304.37 21.82 303.74 23.7 299.67 27.2 291.43 27.55 289.44 22.53 295.7 17.15 304.37 16.65 304.37 21.82"/><polygon class="cls-8" points="280.12 51.76 273.86 57.14 265.62 57.49 263.63 52.47 269.89 47.1 278.14 46.74 280.12 51.76"/><polygon class="cls-8" points="291.64 57.04 285.38 62.42 277.13 62.77 275.15 57.75 281.41 52.37 289.65 52.02 291.64 57.04"/><polygon class="cls-8" points="274.71 63.71 268.46 69.08 260.21 69.44 258.23 64.42 264.49 59.04 272.73 58.69 274.71 63.71"/><polygon class="cls-8" points="286.23 68.98 279.97 74.36 271.73 74.72 269.75 69.69 276 64.32 284.25 63.96 286.23 68.98"/><polygon class="cls-8" points="303.35 62.56 297.1 67.93 288.85 68.29 286.87 63.27 293.13 57.89 301.37 57.53 303.35 62.56"/><polygon class="cls-8" points="298.3 74.34 292.04 79.71 283.8 80.07 281.82 75.05 288.08 69.67 296.32 69.32 298.3 74.34"/><polygon class="cls-8" points="300.92 33.18 294.66 38.56 286.42 38.91 284.43 33.89 290.69 28.52 298.94 28.16 300.92 33.18"/><polygon class="cls-8" points="295.51 45.13 289.25 50.5 281.01 50.86 279.03 45.84 285.29 40.46 293.53 40.11 295.51 45.13"/><polygon class="cls-8" points="305.04 52.12 300.77 55.78 292.53 56.13 290.54 51.11 296.8 45.74 304.24 45.48 305.04 52.12"/><polygon class="cls-8" points="304.88 43.85 297.98 44.15 296 39.13 302.26 33.75 305.11 33.63 304.88 43.85"/><path class="cls-8" d="M325.68,75.22" transform="translate(-19.75 -53.4)"/><polygon class="cls-2" points="304.37 3.1 216.86 1.01 98.83 79.72 221.47 79.72 304.37 3.1"/><path class="cls-9" d="M147.26,115.6c1.06-3,12.1-3.7,19.94-9.59,7-5.28,17.29-7.78,24.36-7.09-2.48.35-9.41,1.85-11.88,8.16-1.63,4.14-8.45,4.21-8.88,5.87,3.69,0,16.06.47,20.66-1.58,7.65-3.41-.22-9.32,6.83-13.06C201.41,96.64,206.7,94.9,216,95a52.76,52.76,0,0,0-6.2,2.66c-2.75,1.4-3.28.32-5.75,3.34-3,3.71,7,8.4,4.52,11.2-1.54,1.74-16,3.85-24.19,5,1.08.21,25.08,7.64,34.14,3.12s-7.81-15.87-7.87-16.58c.42.72,32.32,15.27,29.28,21.41s-37.89,2.65-41.58,3.46c-4.77,1-22.33,2.6-31.22,1.65-1-.1-8.77-.79-24.31-.85C126.93,129.39,146.31,118.32,147.26,115.6Z" transform="translate(-19.75 -53.4)"/><path class="cls-10" d="M252.32,108.36,298.38,68.8c4.4-3.78-2-10.12-6.36-6.36L246,102c-4.4,3.78,2,10.12,6.36,6.36Z" transform="translate(-19.75 -53.4)"/><path class="cls-7" d="M244.69,104.27c-2.3.21-4.29,1.72-4.23,4.23a4.24,4.24,0,0,0,4.44,4c4.5-.08,6.92-7.83,2-9.29a8,8,0,0,0-1.25-.18c.27,0-1.57.38-1.14.3a6.62,6.62,0,0,0-2.61.69,6.75,6.75,0,0,0-2.7,5.19c-.21,4.49,4.77,6.53,8.29,4.26,3.27-2.11,4.26-7,.78-9.38a6.79,6.79,0,0,0-9.38,1.67,6.23,6.23,0,0,0,2.18,8.85,8,8,0,0,0,9.42-1.59c2.69-3.07,2-8.23-1.74-10.1a8.11,8.11,0,0,0-5.64-.35,6.18,6.18,0,0,0-2.75,1.41,6,6,0,0,0-.74.92,3.84,3.84,0,0,0-.35.54,3.33,3.33,0,0,0,.36-.39c-1.67.73-2.06,3.17-1.21,4.62a3.46,3.46,0,0,0,4.62,1.21,4,4,0,0,0,1.36-1.08,6.46,6.46,0,0,0,.7-1c.32-.48.19-.4-.38.25-.25.11-.25.12,0,0a4.74,4.74,0,0,1,.57-.15c-.25,0-.16,0,.27,0s.51,0,.24,0a2.88,2.88,0,0,1-.39-.46v-.21c0,.42,0,.48,0,.16.06.53-.24.25.11,0a1.24,1.24,0,0,1-.5.25c.38,0-1.15.14-.56,0-.33.06-.47,0-.41-.16a.93.93,0,0,1,.51.61c0,.29,0,.31,0,.06v0c-.07,0-.39.34-.49.41q.62-.16.18-.06c-.27-.08-.21-.07.21,0l-.12-.06c.84.58.63,0-.63-1.57-.47-.38,1-.35-.08-.11.24-.06.73-.39,1-.18l1.22,1.21c.25.34-.47,1.08.09.37-.25.31.41-.68.35-.59L245.16,110l-.65.12.84-.11a8.46,8.46,0,0,0,1.2-.31h-1.79l.35.06-1.49-.87.2.25L243,107.6c-.07-.46-.23-1.15.4-1.42l1.7-.46,1.7,1.08.46,1.7,0-.34-.46,1.7.19-.29-1.21,1.21.29-.19-1.7.46.34,0a3.47,3.47,0,0,0,3.37-3.38,3.39,3.39,0,0,0-3.37-3.37Z" transform="translate(-19.75 -53.4)"/><path class="cls-7" d="M218.06,98.32l13.39,7.73a1.12,1.12,0,0,0,1.13-1.94L219.2,96.38a1.13,1.13,0,0,0-1.14,1.94Z" transform="translate(-19.75 -53.4)"/><path class="cls-7" d="M225.46,88.52l9.29,11.83c.9,1.13,2.48-.47,1.59-1.6l-9.29-11.82c-.9-1.13-2.48.47-1.59,1.59Z" transform="translate(-19.75 -53.4)"/><path class="cls-7" d="M242.23,81.86l-1.28,15c-.13,1.44,2.12,1.43,2.25,0l1.28-15c.13-1.44-2.13-1.44-2.25,0Z" transform="translate(-19.75 -53.4)"/><path class="cls-11" d="M151.33,117.87c1.88-.75,3-.33,5.4-1.24a14.74,14.74,0,0,0,5.68-4.09c2.28-2.41,7-5.9,17.72-10.6a20.79,20.79,0,0,1-5.36,5.92c-2.12,1.57-3.46,1.88-5.72,3.63a21.62,21.62,0,0,0-4.64,4.91c1.82.09,4.42.15,7.54,0a73.68,73.68,0,0,0,18.31-3.26c8.66-2.66,9.43-4.55,9.64-5.31.71-2.47-1.59-4.19-.77-6.65s4-3.59,6.61-4.18c-2.21,1.33-4.94,3.47-5.27,6.45s2.06,3.87,1.49,5.93c-1,3.69-9.67,5.06-15.23,5.94a24.21,24.21,0,0,0-4.35.94c-2.63.84-3.4,1.62-5.58,2.17a14.22,14.22,0,0,1-4.84.34,5.41,5.41,0,0,0,1.82,3.1c3.43,2.7,8.63-1.66,18.63-.65,1,.11,1.77.23,2.62.37,7.11,1.19,8.24,2.85,12.55,3.63,1.69.3,6.15-.47,15.07-2,2.2-.39,3.65-.67,4.24-1.8,1.46-2.75-3.54-7.83-4.33-8.62.43.32,6.84,5.18,5.66,8.87-.77,2.43-4.45,3.12-10.82,4.24a62.68,62.68,0,0,1-17.36,1c-8.39-.7-8.83-2.28-15.06-2.07-7.66.25-7.42,2.64-13.13,2.33-8.32-.45-10.86-5.63-18.53-5.09a18.52,18.52,0,0,0-7.86,2.5C147.34,120.19,149.61,118.56,151.33,117.87Z" transform="translate(-19.75 -53.4)"/><path class="cls-11" d="M205.47,116.82" transform="translate(-19.75 -53.4)"/><path class="cls-7" d="M73.59,77.32l31.26,43.93c3.33,4.68,11.14.19,7.78-4.54L81.36,72.77c-3.33-4.68-11.14-.19-7.77,4.55Z" transform="translate(-19.75 -53.4)"/><path class="cls-7" d="M109.48,72.69l8.9,41.81c1.21,5.67,9.88,3.27,8.68-2.39l-8.9-41.81c-1.21-5.66-9.89-3.27-8.68,2.39Z" transform="translate(-19.75 -53.4)"/><path class="cls-7" d="M56.87,119l38.56,18.47c5.2,2.49,9.77-5.27,4.54-7.77L61.42,111.24c-5.2-2.49-9.77,5.26-4.55,7.77Z" transform="translate(-19.75 -53.4)"/></g><g id="Layer_2" data-name="Layer 2"><path class="cls-12" d="M234.46,148.76v0H117.94L22.78,219.65l153.42-.49Z" transform="translate(-19.75 -53.4)"/><polyline class="cls-13" points="1.42 167.03 1.42 218.55 156.45 218.55"/><polyline class="cls-12" points="96.28 97.98 96.28 79.72 221.47 79.72 221.47 145.04 214.71 146.83 156.94 217.23 156.45 165.76"/><path class="cls-12" d="M324.12,56.5l-82.9,76.62Z" transform="translate(-19.75 -53.4)"/><path class="cls-12" d="M324.12,123.07v0Z" transform="translate(-19.75 -53.4)"/><line class="cls-12" x1="221.47" y1="145.04" x2="304.37" y2="69.67"/><polyline class="cls-12" points="96.28 79.72 216.86 1.01 304.37 3.1"/><rect x="96.28" y="79.72" width="125.19" height="15.64"/><rect x="215.68" y="82.59" width="5.79" height="63.22"/></g></svg>